#N canvas 508 5 1920 1086 12;
#X obj 284 220 mtof;
#X obj 284 277 *~ 10000;
#X obj 284 248 osc~;
#X obj 354 162 delay 100;
#X msg 284 162 86;
#X msg 354 191 98;
#X obj 354 119 bng 15 250 50 0 empty empty empty 17 7 0 10 #fcfcfc #000000 #000000;
#X msg 497 162 1 0 \, 0 250 0;
#X obj 497 314 vline~;
#X obj 284 331 *~;
#X obj 284 382 dac~;
#X obj 309 125 bng 15 250 50 0 empty empty empty 17 7 0 10 #fcfcfc #000000 #000000;
#X obj 402 122 bng 15 250 50 0 empty empty empty 17 7 0 10 #fcfcfc #000000 #000000;
#X obj 284 305 clip~ 0 1;
#X connect 0 0 2 0;
#X connect 1 0 13 0;
#X connect 2 0 1 0;
#X connect 3 0 5 0;
#X connect 4 0 0 0;
#X connect 5 0 0 0;
#X connect 6 0 7 0;
#X connect 6 0 4 0;
#X connect 6 0 3 0;
#X connect 7 0 8 0;
#X connect 8 0 9 1;
#X connect 9 0 10 0;
#X connect 9 0 10 1;
#X connect 11 0 4 0;
#X connect 11 0 7 0;
#X connect 12 0 5 0;
#X connect 12 0 7 0;
#X connect 13 0 9 0;
