#N canvas 793 572 835 856 12;
#X obj 40 219 mtof;
#X obj 40 276 *~ 10000;
#X obj 40 247 osc~;
#X obj 110 161 delay 100;
#X msg 40 161 86;
#X msg 110 190 98;
#X obj 110 118 bng 15 250 50 0 empty empty empty 17 7 0 10 #fcfcfc #000000 #000000;
#X msg 253 161 1 0 \, 0 250 0;
#X obj 253 313 vline~;
#X obj 40 330 *~;
#X obj 40 381 dac~;
#X obj 65 124 bng 15 250 50 0 empty empty empty 17 7 0 10 #fcfcfc #000000 #000000;
#X obj 158 121 bng 15 250 50 0 empty empty empty 17 7 0 10 #fcfcfc #000000 #000000;
#X obj 40 304 clip~ 0 1;
#X obj 57 17 r val1;
#X floatatom 59 47 5 0 0 0 - - - 0;
#X obj 59 70 select 0 1 2 3;
#X connect 0 0 2 0;
#X connect 1 0 13 0;
#X connect 2 0 1 0;
#X connect 3 0 5 0;
#X connect 4 0 0 0;
#X connect 5 0 0 0;
#X connect 6 0 7 0;
#X connect 6 0 4 0;
#X connect 6 0 3 0;
#X connect 7 0 8 0;
#X connect 8 0 9 1;
#X connect 9 0 10 0;
#X connect 9 0 10 1;
#X connect 11 0 4 0;
#X connect 11 0 7 0;
#X connect 12 0 5 0;
#X connect 12 0 7 0;
#X connect 13 0 9 0;
#X connect 14 0 15 0;
#X connect 15 0 16 0;
#X connect 16 0 11 0;
#X connect 16 1 6 0;
#X connect 16 2 12 0;
#X connect 16 3 11 0;
