#N canvas 509 166 1920 1026 12;
#X obj 33 18 tgl 15 0 empty empty empty 17 7 0 10 #fcfcfc #000000 #000000 0 1;
#X msg 33 43 \; pd dsp \$1;
#X obj 220 4 r val4;
#X msg 339 360 1 0 \, 0 250 0;
#X obj 337 440 vline~;
#X text 362 248 Envelope;
#N canvas 0 50 450 300 (subpatch) 0;
#X array array_waves 2051 float 0;
#X coords 0 1 2050 -1 200 100 1 0 0;
#X restore 591 485 graph;
#X obj 397 537 metro 100;
#X obj 398 507 tgl 15 0 empty empty empty 17 7 0 10 #fcfcfc #000000 #000000 0 1;
#X obj 397 569 tabwrite~ array_waves;
#X text 696 458 Visualization;
#X floatatom 220 35 5 0 0 0 - - - 0;
#X obj 158 246 phasor~;
#X floatatom 156 145 5 0 0 0 - - - 0;
#X obj 173 489 *~;
#X obj 164 534 dac~;
#X obj 233 245 phasor~;
#X obj 232 206 * -1;
#X obj 175 308 +~;
#X obj 173 341 -~ 1;
#X msg 245 158 0;
#X msg 293 158 0.5;
#X obj 281 105 bng 15 250 50 0 empty empty empty 17 7 0 10 #fcfcfc #000000 #000000;
#X text 151 105 Square;
#X obj 157 71 metro 4000;
#X connect 0 0 1 0;
#X connect 2 0 11 0;
#X connect 3 0 4 0;
#X connect 4 0 14 1;
#X connect 7 0 9 0;
#X connect 8 0 7 0;
#X connect 11 0 24 1;
#X connect 12 0 18 0;
#X connect 13 0 12 0;
#X connect 13 0 17 0;
#X connect 14 0 15 0;
#X connect 14 0 15 1;
#X connect 14 0 9 0;
#X connect 16 0 18 1;
#X connect 17 0 16 0;
#X connect 18 0 19 0;
#X connect 19 0 14 0;
#X connect 20 0 12 1;
#X connect 21 0 16 1;
#X connect 22 0 20 0;
#X connect 22 0 21 0;
#X connect 24 0 3 0;
