#N canvas 509 166 985 666 12;
#X obj 33 18 tgl 15 0 empty empty empty 17 7 0 10 #fcfcfc #000000 #000000 0 1;
#X msg 33 43 \; pd dsp \$1;
#X obj 179 216 phasor~;
#X floatatom 161 115 5 0 0 0 - - - 0;
#X obj 194 475 *~;
#X obj 185 512 dac~;
#X obj 254 215 phasor~;
#X obj 253 176 * -1;
#X obj 190 357 +~;
#X msg 272 122 0;
#X obj 302 75 bng 15 250 50 0 empty empty empty 17 7 0 10 #fcfcfc #000000 #000000;
#X text 205 16 Triangle;
#X obj 259 241 *~ 2;
#X obj 179 249 *~ 2;
#X obj 179 276 -~ 1;
#X obj 258 269 -~ 1;
#X obj 181 308 clip~ 0 1;
#X obj 258 300 clip~ 0 1;
#X obj 244 344 vsl 15 128 0 1 0 0 empty empty empty 0 -9 0 10 #fcfcfc #000000 #000000 0 1;
#X obj 156 66 r val4;
#X msg 387 236 1 0 \, 0 250 0;
#X obj 387 388 vline~;
#X text 412 196 Envelope;
#N canvas 0 50 450 300 (subpatch) 0;
#X array array_waves 2051 float 0;
#X coords 0 1 2050 -1 200 100 1 0 0;
#X restore 591 485 graph;
#X obj 397 537 metro 100;
#X obj 398 507 tgl 15 0 empty empty empty 17 7 0 10 #fcfcfc #000000 #000000 0 1;
#X obj 397 569 tabwrite~ array_waves;
#X text 696 458 Visualization;
#X connect 0 0 1 0;
#X connect 2 0 13 0;
#X connect 3 0 2 0;
#X connect 3 0 7 0;
#X connect 4 0 5 0;
#X connect 4 0 5 1;
#X connect 4 0 26 0;
#X connect 6 0 12 0;
#X connect 7 0 6 0;
#X connect 8 0 4 0;
#X connect 9 0 2 1;
#X connect 9 0 6 1;
#X connect 10 0 9 0;
#X connect 12 0 15 0;
#X connect 13 0 14 0;
#X connect 14 0 16 0;
#X connect 15 0 17 0;
#X connect 16 0 8 0;
#X connect 17 0 8 1;
#X connect 18 0 4 1;
#X connect 19 0 3 0;
#X connect 20 0 21 0;
#X connect 24 0 26 0;
#X connect 25 0 24 0;
