#N canvas 53 257 3456 694 12;
#X obj 417 38 r val4;
#X msg 782 410 1 0 \, 0 250 0;
#X obj 782 444 vline~;
#X text 796 385 Envelope;
#X floatatom 417 67 5 0 0 0 - - - 0;
#X obj 881 351 phasor~;
#X floatatom 881 249 5 0 0 0 - - - 0;
#X obj 896 486 *~;
#X obj 889 606 dac~;
#X obj 956 350 phasor~;
#X obj 956 312 * -1;
#X obj 898 413 +~;
#X obj 896 446 -~ 1;
#X msg 959 251 0;
#X msg 1002 251 0.5;
#X obj 959 217 bng 15 250 50 0 empty empty empty 17 7 0 10 #fcfcfc #000000 #000000;
#X floatatom 515 628 5 0 0 0 - - - 0;
#X obj 417 148 tgl 15 0 empty empty empty 17 7 0 10 #fcfcfc #000000 #000000 0 1;
#X floatatom 484 176 5 0 1000 0 - - - 0;
#X obj 417 313 f;
#X obj 459 313 + 1;
#X obj 487 128 hsl 162 19 0 1000 0 0 empty empty empty -2 -10 0 12 #fcfcfc #000000 #000000 0 1;
#X text 657 128 Slider for Tempo/Beat Length Control;
#X text 526 175 Beat Length;
#X text 7 402 Selector Object for Looping Through Various Hertz Levels;
#X text 155 145 Trigger that starts the Metro Object;
#X msg 273 493 50;
#X msg 311 493 100;
#X msg 352 493 150;
#X obj 417 213 metro 1000;
#X msg 394 493 200;
#X msg 432 493 150;
#X msg 473 493 100;
#X msg 514 493 50;
#X msg 552 493 100;
#X msg 593 493 150;
#X msg 635 493 200;
#X msg 673 493 150;
#X msg 714 493 100;
#X obj 417 402 select 0 1 2 3 4 5 6 7 8 9 10 11;
#X msg 752 493 50;
#X text 171 494 Hertz Levels;
#X text 318 214 Metro Object;
#X obj 515 677 s freq;
#X obj 881 210 r freq;
#X text 871 164 Square Classical Waveform;
#X obj 417 97 select 0 \, 1;
#X obj 417 354 mod 12;
#X text 28 312 Mathematical Objects(Increments of 1 that go up to 12);
#X obj 1855 642 *~;
#X obj 1845 722 dac~;
#X obj 1743 432 mtof;
#X obj 1743 393 + 0;
#X obj 1695 167 metro 4000;
#X obj 1695 134 tgl 15 0 empty empty empty 17 7 0 10 #fcfcfc #000000 #000000 0 1;
#X floatatom 1806 139 5 0 0 0 - - - 0;
#X obj 1695 201 f;
#X obj 1735 201 + 1;
#X obj 1695 275 select 0 1 2 3;
#X obj 1994 418 vline~;
#X floatatom 1830 346 5 0 0 0 - - - 0;
#X obj 1830 293 loadbang;
#X obj 1695 238 mod 4;
#X msg 1695 321 0;
#X obj 1743 549 phasor~;
#X floatatom 1743 465 5 0 0 0 - - - 0;
#X obj 1873 537 phasor~;
#X obj 1873 506 * -1;
#X obj 1855 569 +~;
#X obj 1855 602 -~ 1;
#X msg 1871 467 0;
#X msg 1919 467 0.5;
#X obj 1892 437 bng 15 250 50 0 empty empty empty 17 7 0 10 #fcfcfc #000000 #000000;
#X obj 1892 413 loadbang;
#X obj 1806 61 loadbang;
#X msg 1806 105 500;
#X msg 1718 339 -5;
#X msg 1743 322 -3;
#X msg 1766 339 -1;
#X msg 1994 324 0.5 25 \, 0 100 75;
#X msg 1830 320 48;
#X obj 1695 36 r val2;
#X floatatom 1695 64 5 0 0 0 - - - 0;
#X obj 1695 99 select 0 1;
#X obj 1873 102 r val3;
#X obj 1885 179 s log;
#X obj 1031 1054 *~;
#X obj 1026 1238 dac~;
#X obj 1094 1022 vline~;
#X obj 1031 990 noise~;
#X obj 1094 930 bng 15 250 50 0 empty empty empty 17 7 0 10 #fcfcfc #000000 #000000;
#X msg 1094 970 1 25 \, 0 1000 75;
#X obj 1094 896 r val5;
#X text 796 227 Frequency;
#X text 995 222 Change Duty Cycle to adjust timbre;
#X text 1953 469 Change Duty Cycle to adjust timbre;
#X text 1545 501 Square Classical Waveform;
#X text 2024 293 Envelope;
#X text 1432 135 Trigger that starts the Metro Object;
#X text 1599 166 Metro Object;
#X text 1315 200 Mathematical Objects(Increments of 1 that go up to 4);
#X text 1292 274 Selector Object for Looping Through Various Hertz Levels;
#X obj 1766 1206 phasor~;
#X floatatom 1766 1126 5 0 0 0 - - - 0;
#X obj 1766 1407 *~;
#X obj 1756 1483 dac~;
#X obj 1851 1206 phasor~;
#X obj 1851 1164 * -1;
#X obj 1766 1345 +~;
#X msg 1864 1126 0;
#X obj 1864 1105 bng 15 250 50 0 empty empty empty 17 7 0 10 #fcfcfc #000000 #000000;
#X obj 1851 1239 *~ 2;
#X obj 1766 1239 *~ 2;
#X obj 1766 1268 -~ 1;
#X obj 1851 1269 -~ 1;
#X obj 1766 1311 clip~ 0 1;
#X obj 1851 1311 clip~ 0 1;
#X obj 47 36 tgl 15 0 empty empty empty 17 7 0 10 #fcfcfc #000000 #000000 0 1;
#X msg 47 61 \; pd dsp \$1;
#X obj 1766 1053 mtof;
#X msg 1766 951 86;
#X msg 1812 983 98;
#X obj 1812 905 bng 15 250 50 0 empty empty empty 17 7 0 10 #fcfcfc #000000 #000000;
#X msg 1930 968 1 0 \, 0 250 0;
#X obj 1930 1388 vline~;
#X obj 1785 905 bng 15 250 50 0 empty empty empty 17 7 0 10 #fcfcfc #000000 #000000;
#X obj 1839 906 bng 15 250 50 0 empty empty empty 17 7 0 10 #fcfcfc #000000 #000000;
#X obj 1785 811 r val1;
#X floatatom 1785 841 5 0 0 0 - - - 0;
#X obj 1785 869 select 0 1 2;
#X obj 1864 1079 loadbang;
#X text 1564 1181 Classical Triangle Waveform;
#X obj 1812 950 delay 100;
#X obj 1767 1373 -~ 0.5;
#X obj 495 1026 soundfiler;
#X obj 495 961 bng 15 250 50 0 empty empty empty 17 7 0 10 #fcfcfc #000000 #000000;
#X obj 495 928 loadbang;
#X msg 84 1004 0;
#N canvas 212 36 450 300 (subpatch) 0;
#X array soundData 76291 float 0;
#X coords 0 1 76290 -1 300 100 1;
#X restore 410 1064 graph;
#X obj 84 1050 tabplay~ soundData;
#X obj 74 1213 dac~;
#X msg 495 990 read -resize jump.wav soundData;
#X obj 84 961 bng 19 250 50 0 empty empty empty 0 -10 0 12 #fcfcfc #000000 #000000;
#X obj 84 922 r val4;
#X text 584 908 loads jump.wav SFX;
#X text 140 921 jump.wav is played on var trigger;
#X text 419 1188 visualizer to make sure .wav is loaded;
#X obj 1032 1154 *~;
#X obj 1247 988 vsl 19 162 0 1 0 0 empty empty empty 0 -9 0 12 #fcfcfc #000000 #000000 0 1;
#X obj 1765 1444 *~;
#X obj 2029 1265 vsl 19 162 0 1 0 0 empty empty empty 0 -9 0 12 #fcfcfc #000000 #000000 0 1;
#X obj 1855 678 *~;
#X obj 2055 564 vsl 19 162 0 1 0 0 empty empty empty 0 -9 0 12 #fcfcfc #000000 #000000 0 1;
#X obj 896 547 *~;
#X obj 1087 382 vsl 19 162 0 1 0 0 empty empty empty 0 -9 0 12 #fcfcfc #000000 #000000 0 1;
#X obj 1034 346 cnv 19 200 25 empty empty Channel\ 1:\ Volume 20 12 0 16 #ffc7c6 #404040 0;
#X obj 1971 523 cnv 19 200 25 empty empty Channel\ 2:\ Volume 20 12 0 16 #c6feff #404040 0;
#X obj 1948 1227 cnv 19 200 25 empty empty Channel\ 5:\ Volume 20 12 0 16 #e3c6ff #404040 0;
#X obj 1219 951 cnv 19 200 25 empty empty Channel\ 4:\ Volume 20 12 0 16 #c6ffc7 #404040 0;
#X text 1112 382 Louder;
#X text 1113 523 Quieter;
#X text 2079 567 Louder;
#X text 2080 708 Quieter;
#X text 1271 993 Louder;
#X text 1272 1134 Quieter;
#X text 2053 1271 Louder;
#X text 2054 1412 Quieter;
#X obj 193 10 cnv 19 550 25 empty empty Channel\ One(Pulse\ Waveform)\ Sequencing\ Background\ Music 20 12 0 16 #ffc7c6 #404040 0;
#X obj 94 842 cnv 19 450 25 empty empty Channel\ Three(Sample\ Playback)\ Simple\ Jump 20 12 0 16 #ffe3c6 #404040 0;
#X obj 894 851 cnv 19 500 25 empty empty Channel\ Four(White\ Noise)\ Wall/Object\ Collision 20 12 0 16 #c6ffc7 #404040 0;
#X obj 1567 772 cnv 19 500 25 empty empty Channel\ Five(Triangle\ Waveform)\ Coin\ Collection 20 12 0 16 #e3c6ff #404040 0;
#X obj 1522 10 cnv 19 500 25 empty empty Channel\ Two(Pulse\ Waveform)\ Drowning\ Sequencing\  20 12 0 16 #c6feff #404040 0;
#X obj 84 1160 *~;
#X obj 264 998 vsl 19 162 0 1 0 0 empty empty empty 0 -9 0 12 #fcfcfc #000000 #000000 0 1;
#X obj 218 964 cnv 19 200 25 empty empty Channel\ 3:\ Volume 20 12 0 16 #ffe3c6 #404040 0;
#X text 288 1004 Louder;
#X text 289 1145 Quieter;
#X connect 0 0 4 0;
#X connect 1 0 2 0;
#X connect 2 0 7 1;
#X connect 4 0 46 0;
#X connect 5 0 11 0;
#X connect 6 0 5 0;
#X connect 6 0 10 0;
#X connect 7 0 153 0;
#X connect 9 0 11 1;
#X connect 10 0 9 0;
#X connect 11 0 12 0;
#X connect 12 0 7 0;
#X connect 13 0 5 1;
#X connect 14 0 9 1;
#X connect 15 0 13 0;
#X connect 15 0 14 0;
#X connect 16 0 43 0;
#X connect 17 0 29 0;
#X connect 18 0 29 1;
#X connect 19 0 20 0;
#X connect 19 0 47 0;
#X connect 20 0 19 1;
#X connect 21 0 18 0;
#X connect 26 0 16 0;
#X connect 27 0 16 0;
#X connect 28 0 16 0;
#X connect 29 0 19 0;
#X connect 29 0 1 0;
#X connect 30 0 16 0;
#X connect 31 0 16 0;
#X connect 32 0 16 0;
#X connect 33 0 16 0;
#X connect 34 0 16 0;
#X connect 35 0 16 0;
#X connect 36 0 16 0;
#X connect 37 0 16 0;
#X connect 38 0 16 0;
#X connect 39 0 26 0;
#X connect 39 1 27 0;
#X connect 39 2 28 0;
#X connect 39 3 30 0;
#X connect 39 4 31 0;
#X connect 39 5 32 0;
#X connect 39 6 33 0;
#X connect 39 7 34 0;
#X connect 39 8 35 0;
#X connect 39 9 36 0;
#X connect 39 10 37 0;
#X connect 39 11 38 0;
#X connect 39 12 40 0;
#X connect 40 0 16 0;
#X connect 44 0 6 0;
#X connect 46 0 17 0;
#X connect 47 0 39 0;
#X connect 49 0 151 0;
#X connect 51 0 65 0;
#X connect 52 0 51 0;
#X connect 53 0 56 0;
#X connect 53 0 79 0;
#X connect 54 0 53 0;
#X connect 55 0 53 1;
#X connect 55 0 85 0;
#X connect 56 0 57 0;
#X connect 56 0 62 0;
#X connect 57 0 56 1;
#X connect 58 0 63 0;
#X connect 58 1 76 0;
#X connect 58 2 77 0;
#X connect 58 3 78 0;
#X connect 59 0 49 1;
#X connect 60 0 52 1;
#X connect 61 0 80 0;
#X connect 62 0 58 0;
#X connect 63 0 52 0;
#X connect 64 0 68 0;
#X connect 65 0 64 0;
#X connect 65 0 67 0;
#X connect 66 0 68 1;
#X connect 67 0 66 0;
#X connect 68 0 69 0;
#X connect 69 0 49 0;
#X connect 70 0 64 1;
#X connect 71 0 66 1;
#X connect 72 0 70 0;
#X connect 72 0 71 0;
#X connect 73 0 72 0;
#X connect 74 0 75 0;
#X connect 75 0 55 0;
#X connect 76 0 52 0;
#X connect 77 0 52 0;
#X connect 78 0 52 0;
#X connect 79 0 59 0;
#X connect 80 0 60 0;
#X connect 81 0 82 0;
#X connect 82 0 83 0;
#X connect 83 0 54 0;
#X connect 84 0 55 0;
#X connect 86 0 147 0;
#X connect 88 0 86 1;
#X connect 89 0 86 0;
#X connect 90 0 91 0;
#X connect 91 0 88 0;
#X connect 92 0 90 0;
#X connect 102 0 112 0;
#X connect 103 0 102 0;
#X connect 103 0 107 0;
#X connect 104 0 149 0;
#X connect 106 0 111 0;
#X connect 107 0 106 0;
#X connect 108 0 133 0;
#X connect 109 0 102 1;
#X connect 109 0 106 1;
#X connect 110 0 109 0;
#X connect 111 0 114 0;
#X connect 112 0 113 0;
#X connect 113 0 115 0;
#X connect 114 0 116 0;
#X connect 115 0 108 0;
#X connect 116 0 108 1;
#X connect 117 0 118 0;
#X connect 119 0 103 0;
#X connect 120 0 119 0;
#X connect 121 0 119 0;
#X connect 122 0 123 0;
#X connect 122 0 120 0;
#X connect 122 0 132 0;
#X connect 123 0 124 0;
#X connect 124 0 104 1;
#X connect 125 0 120 0;
#X connect 125 0 123 0;
#X connect 126 0 121 0;
#X connect 126 0 123 0;
#X connect 127 0 128 0;
#X connect 128 0 129 0;
#X connect 129 0 125 0;
#X connect 129 1 122 0;
#X connect 129 2 126 0;
#X connect 130 0 110 0;
#X connect 132 0 121 0;
#X connect 133 0 104 0;
#X connect 135 0 141 0;
#X connect 136 0 135 0;
#X connect 137 0 139 0;
#X connect 139 0 172 0;
#X connect 141 0 134 0;
#X connect 142 0 137 0;
#X connect 143 0 142 0;
#X connect 147 0 87 0;
#X connect 147 0 87 1;
#X connect 148 0 147 1;
#X connect 149 0 105 0;
#X connect 149 0 105 1;
#X connect 150 0 149 1;
#X connect 151 0 50 0;
#X connect 151 0 50 1;
#X connect 152 0 151 1;
#X connect 153 0 8 0;
#X connect 153 0 8 1;
#X connect 154 0 153 1;
#X connect 172 0 140 0;
#X connect 172 0 140 1;
#X connect 173 0 172 1;
