#N canvas 509 166 1920 1026 12;
#X obj 33 18 tgl 15 0 empty empty empty 17 7 0 10 #fcfcfc #000000 #000000 0 1;
#X msg 33 43 \; pd dsp \$1;
#X obj 941 40 r val4;
#X msg 339 360 1 0 \, 0 250 0;
#X obj 337 440 vline~;
#X text 362 248 Envelope;
#N canvas 0 50 450 300 (subpatch) 0;
#X array array_waves 2051 float 0;
#X coords 0 1 2050 -1 200 100 1 0 0;
#X restore 561 633 graph;
#X obj 399 535 metro 100;
#X obj 398 507 tgl 15 0 empty empty empty 17 7 0 10 #fcfcfc #000000 #000000 0 1;
#X obj 401 570 tabwrite~ array_waves;
#X text 665 599 Visualization;
#X floatatom 941 71 5 0 0 0 - - - 0;
#X obj 158 246 phasor~;
#X floatatom 156 145 5 0 0 0 - - - 0;
#X obj 173 489 *~;
#X obj 164 534 dac~;
#X obj 233 245 phasor~;
#X obj 232 206 * -1;
#X obj 175 308 +~;
#X obj 173 341 -~ 1;
#X msg 245 158 0;
#X msg 293 158 0.5;
#X obj 281 105 bng 15 250 50 0 empty empty empty 17 7 0 10 #fcfcfc #000000 #000000;
#X floatatom 1057 611 5 0 0 0 - - - 0;
#X obj 959 131 tgl 15 0 empty empty empty 17 7 0 10 #fcfcfc #000000 #000000 0 1;
#X floatatom 1026 159 5 0 1000 0 - - - 0;
#X obj 959 296 f;
#X obj 1001 296 + 1;
#X obj 1029 111 hsl 162 19 0 1000 0 0 empty empty empty -2 -10 0 12 #fcfcfc #000000 #000000 0 1;
#X text 1199 111 Slider for Tempo/Beat Length Control;
#X text 1068 158 Beat Length;
#X text 549 385 Selector Object for Looping Through Various Hertz Levels;
#X text 697 128 Trigger that starts the Metro Object;
#X msg 815 476 50;
#X msg 853 476 100;
#X msg 894 476 150;
#X obj 959 196 metro 1000;
#X msg 936 476 200;
#X msg 974 476 150;
#X msg 1015 476 100;
#X msg 1056 476 50;
#X msg 1094 476 100;
#X msg 1135 476 150;
#X msg 1177 476 200;
#X msg 1215 476 150;
#X msg 1256 476 100;
#X obj 959 385 select 0 1 2 3 4 5 6 7 8 9 10 11;
#X msg 1294 476 50;
#X text 570 295 Mathematical Objects(Increments of 1 that go up to 13);
#X obj 959 337 mod 13;
#X text 713 477 Hertz Levels;
#X text 860 197 Metro Object;
#X obj 1057 660 s freq;
#X obj 153 104 r freq;
#X floatatom 214 303 5 0 0 0 - - - 0;
#X text 148 59 Square Classical Waveform;
#X connect 0 0 1 0;
#X connect 2 0 11 0;
#X connect 3 0 4 0;
#X connect 4 0 14 1;
#X connect 7 0 9 0;
#X connect 8 0 7 0;
#X connect 12 0 18 0;
#X connect 13 0 12 0;
#X connect 13 0 17 0;
#X connect 14 0 15 0;
#X connect 14 0 15 1;
#X connect 14 0 9 0;
#X connect 16 0 18 1;
#X connect 17 0 16 0;
#X connect 18 0 19 0;
#X connect 19 0 14 0;
#X connect 20 0 12 1;
#X connect 21 0 16 1;
#X connect 22 0 20 0;
#X connect 22 0 21 0;
#X connect 23 0 52 0;
#X connect 24 0 36 0;
#X connect 25 0 36 1;
#X connect 26 0 27 0;
#X connect 26 0 49 0;
#X connect 27 0 26 1;
#X connect 28 0 25 0;
#X connect 33 0 23 0;
#X connect 34 0 23 0;
#X connect 35 0 23 0;
#X connect 36 0 26 0;
#X connect 36 0 3 0;
#X connect 37 0 23 0;
#X connect 38 0 23 0;
#X connect 39 0 23 0;
#X connect 40 0 23 0;
#X connect 41 0 23 0;
#X connect 42 0 23 0;
#X connect 43 0 23 0;
#X connect 44 0 23 0;
#X connect 45 0 23 0;
#X connect 46 0 33 0;
#X connect 46 1 34 0;
#X connect 46 2 35 0;
#X connect 46 3 37 0;
#X connect 46 4 38 0;
#X connect 46 5 39 0;
#X connect 46 6 40 0;
#X connect 46 7 41 0;
#X connect 46 8 42 0;
#X connect 46 9 43 0;
#X connect 46 10 44 0;
#X connect 46 11 45 0;
#X connect 46 12 47 0;
#X connect 47 0 23 0;
#X connect 49 0 46 0;
#X connect 53 0 13 0;
