#N canvas -33 -15 2560 1397 12;
#X obj 418 29 r val4;
#X msg 790 424 1 0 \, 0 250 0;
#X obj 790 458 vline~;
#X text 804 399 Envelope;
#N canvas 0 50 450 300 (subpatch) 0;
#X array array_waves 2051 float 0;
#X coords 0 1 2050 -1 200 100 1 0 0;
#X restore 2325 112 graph;
#X obj 2141 81 tgl 15 0 empty empty empty 17 7 0 10 #fcfcfc #000000 #000000 0 1;
#X obj 2140 137 tabwrite~ array_waves;
#X text 2237 61 Visualization;
#X floatatom 418 58 5 0 0 0 - - - 0;
#X obj 882 342 phasor~;
#X floatatom 882 240 5 0 0 0 - - - 0;
#X obj 897 477 *~;
#X obj 888 522 dac~;
#X obj 957 341 phasor~;
#X obj 957 303 * -1;
#X obj 899 404 +~;
#X obj 897 437 -~ 1;
#X msg 960 242 0;
#X msg 1003 242 0.5;
#X obj 960 208 bng 15 250 50 0 empty empty empty 17 7 0 10 #fcfcfc #000000 #000000;
#X floatatom 516 619 5 0 0 0 - - - 0;
#X obj 418 139 tgl 15 0 empty empty empty 17 7 0 10 #fcfcfc #000000 #000000 0 1;
#X floatatom 485 167 5 0 1000 0 - - - 0;
#X obj 418 304 f;
#X obj 460 304 + 1;
#X obj 488 119 hsl 162 19 0 1000 0 0 empty empty empty -2 -10 0 12 #fcfcfc #000000 #000000 0 1;
#X text 658 119 Slider for Tempo/Beat Length Control;
#X text 527 166 Beat Length;
#X text 8 393 Selector Object for Looping Through Various Hertz Levels;
#X text 156 136 Trigger that starts the Metro Object;
#X msg 274 484 50;
#X msg 312 484 100;
#X msg 353 484 150;
#X obj 418 204 metro 1000;
#X msg 395 484 200;
#X msg 433 484 150;
#X msg 474 484 100;
#X msg 515 484 50;
#X msg 553 484 100;
#X msg 594 484 150;
#X msg 636 484 200;
#X msg 674 484 150;
#X msg 715 484 100;
#X obj 418 393 select 0 1 2 3 4 5 6 7 8 9 10 11;
#X msg 753 484 50;
#X text 172 485 Hertz Levels;
#X text 319 205 Metro Object;
#X obj 516 668 s freq;
#X obj 882 201 r freq;
#X text 872 155 Square Classical Waveform;
#X obj 418 88 select 0 \, 1;
#X obj 418 345 mod 12;
#X text 29 303 Mathematical Objects(Increments of 1 that go up to 12);
#X obj 1817 634 *~;
#X obj 1809 674 dac~;
#X obj 1705 424 mtof;
#X obj 1705 385 + 0;
#X obj 1657 159 metro 4000;
#X obj 1657 126 tgl 15 0 empty empty empty 17 7 0 10 #fcfcfc #000000 #000000 0 1;
#X floatatom 1768 131 5 0 0 0 - - - 0;
#X obj 1657 193 f;
#X obj 1697 193 + 1;
#X obj 1657 267 select 0 1 2 3;
#X obj 1956 410 vline~;
#X floatatom 1792 338 5 0 0 0 - - - 0;
#X obj 1792 285 loadbang;
#X obj 1657 230 mod 4;
#X msg 1657 313 0;
#X obj 1705 541 phasor~;
#X floatatom 1705 457 5 0 0 0 - - - 0;
#X obj 1835 529 phasor~;
#X obj 1835 498 * -1;
#X obj 1817 561 +~;
#X obj 1817 594 -~ 1;
#X msg 1833 459 0;
#X msg 1881 459 0.5;
#X obj 1854 429 bng 15 250 50 0 empty empty empty 17 7 0 10 #fcfcfc #000000 #000000;
#X obj 1854 405 loadbang;
#X obj 1768 53 loadbang;
#X msg 1768 97 500;
#X msg 1680 331 -5;
#X msg 1705 314 -3;
#X msg 1728 331 -1;
#X msg 1956 316 0.5 25 \, 0 100 75;
#X msg 1792 312 48;
#X obj 1657 28 r val2;
#X floatatom 1657 56 5 0 0 0 - - - 0;
#X obj 1657 91 select 0 1;
#X obj 1835 94 r val3;
#X obj 1847 171 s log;
#X text 1605 4 Channel Two(Pulse Waveform) Drowning Sequence;
#X text 333 6 Channel One(Pulse Waveform) Sequencing Background Music;
#X obj 968 1053 *~;
#X obj 959 1098 dac~;
#X obj 1031 1021 vline~;
#X obj 968 989 noise~;
#X obj 1031 929 bng 15 250 50 0 empty empty empty 17 7 0 10 #fcfcfc #000000 #000000;
#X msg 1031 969 1 25 \, 0 1000 75;
#X obj 1031 895 r val5;
#X text 886 847 Channel Four(White Noise) - Wall/Object Collision;
#X text 797 218 Frequency;
#X text 996 213 Change Duty Cycle to adjust timbre;
#X text 1915 461 Change Duty Cycle to adjust timbre;
#X text 1507 493 Square Classical Waveform;
#X text 1986 285 Envelope;
#X text 1394 127 Trigger that starts the Metro Object;
#X text 1561 158 Metro Object;
#X text 1277 192 Mathematical Objects(Increments of 1 that go up to 4);
#X text 1254 266 Selector Object for Looping Through Various Hertz Levels;
#X obj 1766 1206 phasor~;
#X floatatom 1766 1126 5 0 0 0 - - - 0;
#X obj 1766 1407 *~;
#X obj 1754 1445 dac~;
#X obj 1851 1206 phasor~;
#X obj 1851 1164 * -1;
#X obj 1766 1366 +~;
#X msg 1864 1126 0;
#X obj 1864 1105 bng 15 250 50 0 empty empty empty 17 7 0 10 #fcfcfc #000000 #000000;
#X obj 1851 1239 *~ 2;
#X obj 1766 1239 *~ 2;
#X obj 1766 1268 -~ 1;
#X obj 1851 1269 -~ 1;
#X obj 1766 1311 clip~ 0 1;
#X obj 1851 1311 clip~ 0 1;
#X obj 47 36 tgl 15 0 empty empty empty 17 7 0 10 #fcfcfc #000000 #000000 0 1;
#X msg 47 61 \; pd dsp \$1;
#X obj 1766 1053 mtof;
#X obj 1812 950 delay 100;
#X msg 1766 951 86;
#X msg 1812 983 98;
#X obj 1812 905 bng 15 250 50 0 empty empty empty 17 7 0 10 #fcfcfc #000000 #000000;
#X msg 1930 968 1 0 \, 0 250 0;
#X obj 1930 1388 vline~;
#X obj 1785 905 bng 15 250 50 0 empty empty empty 17 7 0 10 #fcfcfc #000000 #000000;
#X obj 1839 906 bng 15 250 50 0 empty empty empty 17 7 0 10 #fcfcfc #000000 #000000;
#X obj 1785 816 r val1;
#X floatatom 1785 846 5 0 0 0 - - - 0;
#X obj 1785 869 select 0 1 2;
#X obj 1864 1079 loadbang;
#X obj 2142 109 metro 100;
#X text 1671 780 Channel Five(Triangle Waveform) - Coin Collection;
#X text 1564 1181 Classical Triangle Waveform;
#X text 313 829 Channel Three(Sample Playback) - Simple Jump;
#X obj 278 1089 phasor~;
#X obj 278 1152 *~;
#X obj 267 1251 dac~;
#X obj 358 907 soundfiler;
#X floatatom 358 933 15 0 1e+09 0 - - - 0;
#X obj 278 1186 tabread4~ soundData;
#X obj 278 1217 *~;
#X floatatom 437 1199 5 0 1 0 - - - 0;
#X obj 358 964 expr 44100/$f1;
#X floatatom 358 995 5 0 0 0 - - - 0;
#X floatatom 497 1008 5 0 0 0 - - - 0;
#X msg 358 878 read -resize Piano.wav soundData;
#X obj 497 1070 * 1;
#X obj 497 1039 bng 15 250 50 0 empty empty empty 17 7 0 10 #fcfcfc #000000 #000000;
#X msg 497 980 1;
#X obj 497 951 loadbang;
#X connect 0 0 8 0;
#X connect 1 0 2 0;
#X connect 2 0 11 1;
#X connect 5 0 139 0;
#X connect 8 0 50 0;
#X connect 9 0 15 0;
#X connect 10 0 9 0;
#X connect 10 0 14 0;
#X connect 11 0 12 0;
#X connect 11 0 12 1;
#X connect 13 0 15 1;
#X connect 14 0 13 0;
#X connect 15 0 16 0;
#X connect 16 0 11 0;
#X connect 17 0 9 1;
#X connect 18 0 13 1;
#X connect 19 0 17 0;
#X connect 19 0 18 0;
#X connect 20 0 47 0;
#X connect 21 0 33 0;
#X connect 22 0 33 1;
#X connect 23 0 24 0;
#X connect 23 0 51 0;
#X connect 24 0 23 1;
#X connect 25 0 22 0;
#X connect 30 0 20 0;
#X connect 31 0 20 0;
#X connect 32 0 20 0;
#X connect 33 0 23 0;
#X connect 33 0 1 0;
#X connect 34 0 20 0;
#X connect 35 0 20 0;
#X connect 36 0 20 0;
#X connect 37 0 20 0;
#X connect 38 0 20 0;
#X connect 39 0 20 0;
#X connect 40 0 20 0;
#X connect 41 0 20 0;
#X connect 42 0 20 0;
#X connect 43 0 30 0;
#X connect 43 1 31 0;
#X connect 43 2 32 0;
#X connect 43 3 34 0;
#X connect 43 4 35 0;
#X connect 43 5 36 0;
#X connect 43 6 37 0;
#X connect 43 7 38 0;
#X connect 43 8 39 0;
#X connect 43 9 40 0;
#X connect 43 10 41 0;
#X connect 43 11 42 0;
#X connect 43 12 44 0;
#X connect 44 0 20 0;
#X connect 48 0 10 0;
#X connect 50 0 21 0;
#X connect 51 0 43 0;
#X connect 53 0 54 0;
#X connect 53 0 54 1;
#X connect 55 0 69 0;
#X connect 56 0 55 0;
#X connect 57 0 60 0;
#X connect 57 0 83 0;
#X connect 58 0 57 0;
#X connect 59 0 57 1;
#X connect 59 0 89 0;
#X connect 60 0 61 0;
#X connect 60 0 66 0;
#X connect 61 0 60 1;
#X connect 62 0 67 0;
#X connect 62 1 80 0;
#X connect 62 2 81 0;
#X connect 62 3 82 0;
#X connect 63 0 53 1;
#X connect 64 0 56 1;
#X connect 65 0 84 0;
#X connect 66 0 62 0;
#X connect 67 0 56 0;
#X connect 68 0 72 0;
#X connect 69 0 68 0;
#X connect 69 0 71 0;
#X connect 70 0 72 1;
#X connect 71 0 70 0;
#X connect 72 0 73 0;
#X connect 73 0 53 0;
#X connect 74 0 68 1;
#X connect 75 0 70 1;
#X connect 76 0 74 0;
#X connect 76 0 75 0;
#X connect 77 0 76 0;
#X connect 78 0 79 0;
#X connect 79 0 59 0;
#X connect 80 0 56 0;
#X connect 81 0 56 0;
#X connect 82 0 56 0;
#X connect 83 0 63 0;
#X connect 84 0 64 0;
#X connect 85 0 86 0;
#X connect 86 0 87 0;
#X connect 87 0 58 0;
#X connect 88 0 59 0;
#X connect 92 0 93 0;
#X connect 92 0 93 1;
#X connect 94 0 92 1;
#X connect 95 0 92 0;
#X connect 96 0 97 0;
#X connect 97 0 94 0;
#X connect 98 0 96 0;
#X connect 109 0 119 0;
#X connect 110 0 109 0;
#X connect 110 0 114 0;
#X connect 111 0 112 0;
#X connect 111 0 112 1;
#X connect 113 0 118 0;
#X connect 114 0 113 0;
#X connect 115 0 111 0;
#X connect 116 0 109 1;
#X connect 116 0 113 1;
#X connect 117 0 116 0;
#X connect 118 0 121 0;
#X connect 119 0 120 0;
#X connect 120 0 122 0;
#X connect 121 0 123 0;
#X connect 122 0 115 0;
#X connect 123 0 115 1;
#X connect 124 0 125 0;
#X connect 126 0 110 0;
#X connect 127 0 129 0;
#X connect 128 0 126 0;
#X connect 129 0 126 0;
#X connect 130 0 131 0;
#X connect 130 0 128 0;
#X connect 130 0 127 0;
#X connect 131 0 132 0;
#X connect 132 0 111 1;
#X connect 133 0 128 0;
#X connect 133 0 131 0;
#X connect 134 0 129 0;
#X connect 134 0 131 0;
#X connect 135 0 136 0;
#X connect 136 0 137 0;
#X connect 137 0 133 0;
#X connect 137 1 130 0;
#X connect 137 2 134 0;
#X connect 138 0 117 0;
#X connect 139 0 6 0;
#X connect 143 0 144 0;
#X connect 144 0 148 0;
#X connect 146 0 147 0;
#X connect 147 0 144 1;
#X connect 147 0 151 0;
#X connect 148 0 149 0;
#X connect 149 0 145 0;
#X connect 149 0 145 1;
#X connect 150 0 149 1;
#X connect 151 0 152 0;
#X connect 152 0 155 0;
#X connect 153 0 156 0;
#X connect 153 0 155 1;
#X connect 154 0 146 0;
#X connect 155 0 143 0;
#X connect 156 0 155 0;
#X connect 157 0 153 0;
#X connect 158 0 157 0;
