#N canvas 279 1182 1920 1086 12;
#X obj 279 620 *~;
#X obj 270 665 dac~;
#X obj 180 395 mtof;
#X obj 179 354 + 0;
#X obj 162 145 metro 4000;
#X obj 162 112 tgl 15 0 empty empty empty 17 7 0 10 #fcfcfc #000000 #000000 0 1;
#X floatatom 229 117 5 0 0 0 - - - 0;
#X obj 143 179 f;
#X obj 186 181 + 1;
#X obj 164 246 select 0 1 2 3;
#X obj 426 332 vline~;
#X floatatom 326 331 5 0 0 0 - - - 0;
#X obj 326 278 loadbang;
#X obj 163 214 mod 4;
#X msg 137 299 0;
#X obj 159 501 phasor~;
#X floatatom 157 442 5 0 0 0 - - - 0;
#X obj 234 500 phasor~;
#X obj 233 469 * -1;
#X obj 278 547 +~;
#X obj 276 580 -~ 1;
#X msg 235 438 0;
#X msg 283 438 0.5;
#X obj 256 408 bng 15 250 50 0 empty empty empty 17 7 0 10 #fcfcfc #000000 #000000;
#X obj 255 383 loadbang;
#X obj 229 39 loadbang;
#X msg 229 83 500;
#X msg 176 299 -5;
#X msg 217 299 -3;
#X msg 259 299 -1;
#X msg 426 280 0.5 25 \, 0 100 75;
#X msg 326 305 48;
#X obj 115 14 r val2;
#X floatatom 118 46 5 0 0 0 - - - 0;
#X obj 132 77 select 0 1;
#X msg 67 61;
#X obj 296 80 r val3;
#X obj 308 157 s log;
#X connect 0 0 1 0;
#X connect 0 0 1 1;
#X connect 2 0 16 0;
#X connect 3 0 2 0;
#X connect 4 0 7 0;
#X connect 4 0 30 0;
#X connect 5 0 4 0;
#X connect 6 0 4 1;
#X connect 6 0 37 0;
#X connect 7 0 8 0;
#X connect 7 0 13 0;
#X connect 8 0 7 1;
#X connect 9 0 14 0;
#X connect 9 1 27 0;
#X connect 9 2 28 0;
#X connect 9 3 29 0;
#X connect 10 0 0 1;
#X connect 11 0 3 1;
#X connect 12 0 31 0;
#X connect 13 0 9 0;
#X connect 14 0 3 0;
#X connect 15 0 19 0;
#X connect 16 0 15 0;
#X connect 16 0 18 0;
#X connect 17 0 19 1;
#X connect 18 0 17 0;
#X connect 19 0 20 0;
#X connect 20 0 0 0;
#X connect 21 0 15 1;
#X connect 22 0 17 1;
#X connect 23 0 21 0;
#X connect 23 0 22 0;
#X connect 24 0 23 0;
#X connect 25 0 26 0;
#X connect 26 0 6 0;
#X connect 27 0 3 0;
#X connect 28 0 3 0;
#X connect 29 0 3 0;
#X connect 30 0 10 0;
#X connect 31 0 11 0;
#X connect 32 0 33 0;
#X connect 33 0 34 0;
#X connect 34 0 5 0;
#X connect 36 0 6 0;
