#N canvas 626 -26 3456 1935 12;
#X text 177 277 creation arguments are OSC address;
#X text 179 238 set message to change OSC address;
#X text 164 48 1 Set IP Address : network address;
#X text 164 68 2 Set Ports (sending and listening);
#X text 164 87 3 Set OSC Addresses (routing osc data;
#X text 155 25 Key Settings;
#X floatatom 43 194 5 0 0 0 - - - 0;
#N canvas 1099 23 623 462 oscReceive 0;
#X obj 55 184 netreceive -u -b;
#X msg 78 143 listen 0;
#X text 152 143 stop listening;
#X text 64 58 packets from network;
#X text 173 177 UDP packets \, binary output, f 13;
#X obj 45 314 print;
#X obj 45 272 oscparse;
#X text 150 114 listen on port 8000;
#X obj 177 269 oscparse;
#X obj 177 293 list trim;
#X floatatom 140 380 5 0 0 0 - - - 0;
#X text 241 267 Parse the OSC message;
#X obj 177 319 route unity;
#X msg 66 115 listen 8000;
#X obj 66 84 loadbang;
#X floatatom 244 382 5 0 0 0 - - - 0;
#X floatatom 339 382 5 0 0 0 - - - 0;
#X obj 139 357 route test1;
#X obj 243 359 route test2;
#X obj 338 359 route test3;
#X obj 140 407 s val1;
#X obj 244 409 s val2;
#X obj 339 409 s val3;
#X connect 0 0 6 0;
#X connect 0 0 8 0;
#X connect 1 0 0 0;
#X connect 6 0 5 0;
#X connect 8 0 9 0;
#X connect 9 0 12 0;
#X connect 10 0 20 0;
#X connect 12 0 17 0;
#X connect 12 0 18 0;
#X connect 12 0 19 0;
#X connect 13 0 0 0;
#X connect 14 0 13 0;
#X connect 15 0 21 0;
#X connect 16 0 22 0;
#X connect 17 0 10 0;
#X connect 18 0 15 0;
#X connect 19 0 16 0;
#X restore 47 142 pd oscReceive;
#X obj 47 36 tgl 15 0 empty empty empty 17 7 0 10 #fcfcfc #000000 #000000 0 1;
#X msg 47 61 \; pd dsp \$1;
#X obj 44 278 oscformat PD message;
#X msg 76 239 set PD message;
#N canvas 727 97 450 300 oscSend 0;
#X msg 158 207 disconnect;
#X obj 61 253 netsend -u -b;
#X obj 59 55 list prepend send;
#X obj 59 80 list trim;
#X msg 150 175 connect 127.0.0.1 8001;
#X obj 59 29 r oscOut;
#X text 301 163 send to port 8001;
#X msg 147 148 connect localhost 8001;
#X obj 147 108 loadbang;
#X connect 0 0 1 0;
#X connect 2 0 3 0;
#X connect 3 0 1 0;
#X connect 4 0 1 0;
#X connect 5 0 2 0;
#X connect 7 0 1 0;
#X connect 8 0 7 0;
#X restore 47 118 pd oscSend;
#X obj 44 313 s oscOut;
#X obj 1389 965 *~;
#X obj 1380 1010 dac~;
#X obj 547 146 mtof;
#X obj 547 203 *~ 10000;
#X obj 547 174 osc~;
#X obj 617 88 delay 100;
#X msg 547 88 86;
#X msg 617 117 98;
#X obj 617 45 bng 15 250 50 0 empty empty empty 17 7 0 10 #fcfcfc #000000 #000000;
#X msg 760 88 1 0 \, 0 250 0;
#X obj 760 240 vline~;
#X obj 547 257 *~;
#X obj 547 308 dac~;
#X obj 572 51 bng 15 250 50 0 empty empty empty 17 7 0 10 #fcfcfc #000000 #000000;
#X obj 665 48 bng 15 250 50 0 empty empty empty 17 7 0 10 #fcfcfc #000000 #000000;
#X obj 547 231 clip~ 0 1;
#X obj 1122 640 *~;
#X obj 1113 685 dac~;
#X obj 1023 415 mtof;
#X obj 1022 374 + 0;
#X obj 1005 165 metro 4000;
#X obj 1005 132 tgl 15 0 empty empty empty 17 7 0 10 #fcfcfc #000000 #000000 0 1;
#X floatatom 1072 137 5 0 0 0 - - - 0;
#X obj 986 199 f;
#X obj 1029 201 + 1;
#X obj 1007 266 select 0 1 2 3;
#X obj 1269 352 vline~;
#X floatatom 1169 351 5 0 0 0 - - - 0;
#X obj 1169 298 loadbang;
#X obj 1006 234 mod 4;
#X msg 980 319 0;
#X obj 1002 521 phasor~;
#X floatatom 1000 462 5 0 0 0 - - - 0;
#X obj 1077 520 phasor~;
#X obj 1076 489 * -1;
#X obj 1121 567 +~;
#X obj 1119 600 -~ 1;
#X msg 1078 458 0;
#X msg 1126 458 0.5;
#X obj 1099 428 bng 15 250 50 0 empty empty empty 17 7 0 10 #fcfcfc #000000 #000000;
#X obj 1098 403 loadbang;
#X obj 1072 59 loadbang;
#X msg 1072 103 500;
#X msg 1019 319 -5;
#X msg 1060 319 -3;
#X msg 1102 319 -1;
#X msg 1269 300 0.5 25 \, 0 100 75;
#X msg 1169 325 48;
#X connect 6 0 10 0;
#X connect 8 0 9 0;
#X connect 10 0 13 0;
#X connect 11 0 10 0;
#X connect 14 0 15 0;
#X connect 14 0 15 1;
#X connect 16 0 18 0;
#X connect 17 0 29 0;
#X connect 18 0 17 0;
#X connect 19 0 21 0;
#X connect 20 0 16 0;
#X connect 21 0 16 0;
#X connect 22 0 23 0;
#X connect 22 0 20 0;
#X connect 22 0 19 0;
#X connect 23 0 24 0;
#X connect 24 0 25 1;
#X connect 25 0 26 0;
#X connect 25 0 26 1;
#X connect 27 0 20 0;
#X connect 27 0 23 0;
#X connect 28 0 21 0;
#X connect 28 0 23 0;
#X connect 29 0 25 0;
#X connect 30 0 31 0;
#X connect 30 0 31 1;
#X connect 32 0 46 0;
#X connect 33 0 32 0;
#X connect 34 0 37 0;
#X connect 34 0 60 0;
#X connect 35 0 34 0;
#X connect 36 0 34 1;
#X connect 37 0 38 0;
#X connect 37 0 43 0;
#X connect 38 0 37 1;
#X connect 39 0 44 0;
#X connect 39 1 57 0;
#X connect 39 2 58 0;
#X connect 39 3 59 0;
#X connect 40 0 30 1;
#X connect 41 0 33 1;
#X connect 42 0 61 0;
#X connect 43 0 39 0;
#X connect 44 0 33 0;
#X connect 45 0 49 0;
#X connect 46 0 45 0;
#X connect 46 0 48 0;
#X connect 47 0 49 1;
#X connect 48 0 47 0;
#X connect 49 0 50 0;
#X connect 50 0 30 0;
#X connect 51 0 45 1;
#X connect 52 0 47 1;
#X connect 53 0 51 0;
#X connect 53 0 52 0;
#X connect 54 0 53 0;
#X connect 55 0 56 0;
#X connect 56 0 36 0;
#X connect 57 0 33 0;
#X connect 58 0 33 0;
#X connect 59 0 33 0;
#X connect 60 0 40 0;
#X connect 61 0 41 0;
